<svg xmlns="http://www.w3.org/2000/svg" viewBox="0 0 32 32">
  <defs>
    <linearGradient id="ghBg" x1="0%" y1="0%" x2="0%" y2="100%">
      <stop offset="0%" stop-color="#555"/>
      <stop offset="100%" stop-color="#1a1a1a"/>
    </linearGradient>
  </defs>
  <!-- Background -->
  <rect x="2" y="2" width="28" height="28" rx="6" fill="url(#ghBg)"/>
  <!-- Github octocat silhouette -->
  <path d="M16 4C9.37 4 4 9.37 4 16c0 5.3 3.44 9.8 8.2 11.39.6.11.82-.26.82-.58v-2.03c-3.34.73-4.04-1.61-4.04-1.61-.55-1.39-1.34-1.76-1.34-1.76-1.09-.75.08-.73.08-.73 1.21.08 1.85 1.24 1.85 1.24 1.07 1.84 2.81 1.31 3.5 1 .11-.78.42-1.31.76-1.61-2.67-.3-5.47-1.33-5.47-5.93 0-1.31.47-2.38 1.24-3.22-.12-.3-.54-1.52.12-3.18 0 0 1.01-.32 3.3 1.23a11.5 11.5 0 0 1 6.02 0c2.3-1.55 3.3-1.23 3.3-1.23.66 1.66.24 2.88.12 3.18.77.84 1.24 1.91 1.24 3.22 0 4.61-2.8 5.63-5.48 5.92.43.37.82 1.1.82 2.22v3.29c0 .32.22.7.82.58C24.56 25.8 28 21.3 28 16c0-6.63-5.37-12-12-12z" fill="#fff"/>
  <!-- Gloss -->
  <rect x="4" y="3" width="14" height="10" rx="4" fill="rgba(255,255,255,0.1)"/>
  <!-- Border -->
  <rect x="2" y="2" width="28" height="28" rx="6" fill="none" stroke="#000" stroke-width="0.5"/>
</svg>
